<?xml version="1.0" encoding="UTF-8" standalone="no"?>
<!DOCTYPE svg PUBLIC "-//W3C//DTD SVG 1.1//EN" "http://www.w3.org/Graphics/SVG/1.1/DTD/svg11.dtd">
<svg xmlns="http://www.w3.org/2000/svg" version="1.1" viewBox="0.00 0.00 434.00 434.00">
<path d="
  M 180.72 237.17
  C 191.28 240.25 205.18 250.29 209.50 260.77
  C 212.29 267.55 214.46 275.15 222.75 276.78
  Q 225.97 277.41 234.90 277.93
  Q 246.37 278.60 247.09 278.57
  C 256.67 278.17 263.99 272.92 271.87 268.09
  C 278.22 264.20 300.03 257.01 301.87 269.81
  C 302.84 276.51 298.41 278.64 292.42 280.11
  C 288.27 281.13 284.33 282.14 280.45 284.17
  C 271.81 288.69 263.87 294.18 253.76 295.25
  C 245.00 296.17 234.83 294.58 225.48 294.55
  Q 215.65 294.52 209.30 293.18
  C 196.49 290.46 193.84 275.08 187.70 265.80
  C 182.35 257.70 167.24 255.15 158.18 254.15
  C 149.19 253.16 143.85 251.84 137.95 245.54
  Q 130.62 237.72 123.53 231.97
  C 119.07 228.34 113.78 227.15 108.00 228.36
  C 96.42 230.78 89.43 238.41 85.27 249.25
  Q 84.46 251.38 84.67 253.85
  C 85.53 263.80 86.46 274.94 73.01 275.56
  C 64.63 275.95 60.53 269.00 59.33 261.24
  C 55.01 233.30 51.37 212.61 56.40 187.14
  C 74.39 96.03 162.47 38.30 253.55 60.44
  C 285.52 68.22 313.18 85.82 335.97 110.28
  C 365.62 142.11 380.03 182.67 379.86 225.99
  C 379.80 242.48 359.42 234.85 350.96 232.51
  Q 333.25 227.59 317.43 234.41
  C 300.36 241.78 281.39 240.57 277.51 218.50
  C 276.44 212.37 275.07 206.08 272.87 200.45
  C 264.13 178.06 243.25 160.82 217.94 160.43
  C 189.06 159.98 164.57 180.96 161.90 209.70
  C 161.10 218.31 164.12 230.42 172.82 234.41
  Q 175.59 235.68 180.72 237.17
  Z
  M 191.3749 112.4966
  A 14.17 7.49 5.9 0 0 178.0499 103.5897
  A 14.17 7.49 5.9 0 0 163.1851 109.5834
  A 14.17 7.49 5.9 0 0 176.5101 118.4903
  A 14.17 7.49 5.9 0 0 191.3749 112.4966
  Z
  M 293.0648 142.3150
  A 13.60 7.26 24.2 0 0 283.6360 130.1180
  A 13.60 7.26 24.2 0 0 268.2552 131.1650
  A 13.60 7.26 24.2 0 0 277.6840 143.3620
  A 13.60 7.26 24.2 0 0 293.0648 142.3150
  Z
  M 116.3546 147.6007
  A 6.57 4.52 19.2 0 0 111.6365 141.1714
  A 6.57 4.52 19.2 0 0 103.9454 143.2793
  A 6.57 4.52 19.2 0 0 108.6635 149.7086
  A 6.57 4.52 19.2 0 0 116.3546 147.6007
  Z
  M 327.4238 158.2769
  A 6.73 4.16 20.5 0 0 322.5769 152.0234
  A 6.73 4.16 20.5 0 0 314.8162 153.5631
  A 6.73 4.16 20.5 0 0 319.6631 159.8166
  A 6.73 4.16 20.5 0 0 327.4238 158.2769
  Z
  M 122.0948 200.2530
  A 9.67 6.34 50.7 0 0 120.8761 188.7544
  A 9.67 6.34 50.7 0 0 109.8452 185.2870
  A 9.67 6.34 50.7 0 0 111.0639 196.7856
  A 9.67 6.34 50.7 0 0 122.0948 200.2530
  Z"
/>
<path d="
  M 167.74 304.78
  C 167.56 317.41 135.05 311.45 137.81 295.27
  C 138.74 289.76 144.87 288.80 149.36 290.07
  C 156.34 292.05 167.87 295.05 167.74 304.78
  Z"
/>
<ellipse cx="0.00" cy="0.00" transform="translate(318.69,312.13) rotate(-29.9)" rx="9.07" ry="7.61" />
<path d="
  M 112.32 316.19
  C 116.34 319.58 121.09 326.76 126.44 329.01
  C 140.54 334.93 152.08 342.70 163.90 352.27
  C 168.18 355.74 177.87 360.52 180.39 366.35
  C 182.63 371.54 179.96 377.00 174.68 378.70
  C 163.79 382.21 152.08 371.10 144.84 364.57
  C 134.50 355.26 123.86 348.41 111.34 342.80
  Q 100.64 338.01 95.55 330.22
  C 92.71 325.88 92.34 317.41 96.94 313.80
  C 101.54 310.18 108.14 312.67 112.32 316.19
  Z"
/>
<path d="
  M 256.60 364.77
  Q 246.66 360.69 236.83 356.32
  C 230.64 353.57 224.28 352.61 217.76 351.04
  Q 212.62 349.80 210.84 344.93
  C 207.63 336.16 215.93 331.32 223.48 331.75
  C 236.09 332.46 247.09 339.48 262.06 345.92
  Q 279.51 353.43 297.26 347.33
  C 309.33 343.18 316.10 354.83 306.05 363.35
  C 294.34 373.28 270.06 370.29 256.60 364.77
  Z"
/>
</svg>
