<?xml version="1.0" encoding="UTF-8" standalone="no"?>
<!DOCTYPE svg PUBLIC "-//W3C//DTD SVG 1.1//EN" "http://www.w3.org/Graphics/SVG/1.1/DTD/svg11.dtd">
<svg xmlns="http://www.w3.org/2000/svg" version="1.1" viewBox="0.00 0.00 580.00 180.00">
<path d="
  M 62.29 95.17
  C 65.50 100.47 70.28 100.05 75.11 102.64
  Q 81.04 105.81 85.10 111.14
  C 88.77 115.94 87.89 122.15 95.59 122.98
  Q 100.47 123.50 105.37 123.71
  C 114.61 124.12 118.48 118.03 126.36 115.86
  C 129.85 114.90 136.83 113.64 137.84 118.78
  C 139.02 124.84 130.62 124.65 126.87 126.63
  C 118.48 131.04 114.13 133.63 105.49 133.15
  Q 96.99 132.69 88.49 132.27
  C 78.19 131.75 79.08 119.18 72.41 114.57
  C 67.15 110.94 59.68 110.43 53.49 109.51
  Q 51.83 109.27 49.51 107.59
  C 42.20 102.27 38.41 92.55 28.32 96.89
  Q 16.61 101.92 17.80 115.50
  C 18.39 122.12 9.28 124.37 5.68 119.46
  Q 4.52 117.88 3.76 114.12
  C 0.98 100.43 -0.51 85.98 2.28 72.38
  C 15.28 8.94 90.05 -21.71 142.83 18.15
  Q 180.51 46.61 181.11 94.48
  C 181.24 105.36 164.63 97.59 159.19 97.28
  Q 152.03 96.88 145.35 99.76
  C 138.86 102.57 130.44 102.62 126.47 96.17
  Q 125.34 94.33 123.99 88.02
  C 118.86 63.96 92.90 48.41 71.58 65.21
  C 64.28 70.96 56.41 85.47 62.29 95.17
  Z
  M 76.6916 31.8517
  A 7.77 4.08 5.7 0 0 69.3652 27.0202
  A 7.77 4.08 5.7 0 0 61.2284 30.3083
  A 7.77 4.08 5.7 0 0 68.5548 35.1398
  A 7.77 4.08 5.7 0 0 76.6916 31.8517
  Z
  M 132.9691 48.3499
  A 7.46 3.97 24.3 0 0 127.8037 41.6617
  A 7.46 3.97 24.3 0 0 119.3709 42.2101
  A 7.46 3.97 24.3 0 0 124.5363 48.8983
  A 7.46 3.97 24.3 0 0 132.9691 48.3499
  Z
  M 35.1730 51.4018
  A 3.62 2.47 20.4 0 0 32.6410 47.8249
  A 3.62 2.47 20.4 0 0 28.3870 48.8782
  A 3.62 2.47 20.4 0 0 30.9190 52.4551
  A 3.62 2.47 20.4 0 0 35.1730 51.4018
  Z
  M 152.0505 57.2314
  A 3.71 2.25 20.7 0 0 149.3753 53.8153
  A 3.71 2.25 20.7 0 0 145.1095 54.6086
  A 3.71 2.25 20.7 0 0 147.7847 58.0247
  A 3.71 2.25 20.7 0 0 152.0505 57.2314
  Z
  M 38.3580 80.4444
  A 5.32 3.44 51.0 0 0 37.6834 74.1451
  A 5.32 3.44 51.0 0 0 31.6620 72.1756
  A 5.32 3.44 51.0 0 0 32.3366 78.4749
  A 5.32 3.44 51.0 0 0 38.3580 80.4444
  Z"
/>
<path d="
  M 250.24 98.09
  Q 244.61 117.79 238.52 137.34
  C 236.50 143.83 234.93 145.80 228.80 141.47
  C 224.75 138.61 228.20 131.75 228.72 127.70
  Q 229.56 121.13 232.26 115.08
  C 232.93 113.57 232.81 111.92 233.24 110.49
  Q 235.03 104.61 238.48 95.67
  Q 238.67 95.18 238.33 94.77
  C 227.92 82.36 226.58 65.47 228.59 50.01
  Q 229.25 44.88 231.89 40.85
  C 233.72 38.06 236.85 38.85 238.19 41.57
  Q 239.71 44.67 239.82 49.01
  C 239.87 51.13 240.74 91.40 249.09 82.83
  Q 262.45 69.15 274.76 54.49
  C 277.87 50.79 282.85 44.70 288.78 43.63
  A 0.73 0.73 0.0 0 1 289.59 44.08
  L 291.33 48.65
  A 0.60 0.59 8.6 0 0 291.52 48.90
  Q 294.43 50.98 291.79 53.54
  Q 274.74 70.05 259.50 88.24
  Q 256.50 91.81 250.74 97.27
  Q 250.37 97.62 250.24 98.09
  Z"
/>
<path d="
  M 397.39 123.13
  A 0.26 0.26 0.0 0 0 397.88 123.04
  Q 399.82 111.76 402.60 100.46
  C 403.26 97.75 403.26 95.58 404.85 93.14
  Q 406.70 90.30 407.85 87.07
  Q 411.48 76.97 415.78 67.13
  C 420.56 56.21 430.76 41.29 444.23 41.84
  C 448.24 42.01 451.40 44.96 453.97 47.74
  C 455.92 49.84 455.77 51.73 454.48 54.29
  Q 450.97 61.30 446.13 67.27
  A 2.08 2.07 48.3 0 1 442.76 67.07
  Q 442.07 65.97 442.28 64.74
  A 1.15 1.15 0.0 0 0 441.91 63.70
  C 437.98 60.18 442.76 58.34 441.33 54.89
  A 1.19 1.19 0.0 0 0 439.54 54.38
  C 436.28 56.69 433.90 58.51 431.70 62.02
  Q 429.61 65.37 427.46 68.69
  A 1.31 1.27 62.5 0 0 427.25 69.40
  L 427.25 69.95
  Q 427.25 70.09 427.18 70.21
  Q 422.89 78.05 419.46 86.27
  A 0.93 0.93 0.0 0 0 420.40 87.56
  C 427.21 86.96 437.86 80.99 437.71 93.88
  Q 437.70 94.39 437.27 94.66
  C 432.53 97.58 422.51 98.83 416.79 100.05
  Q 414.77 100.48 414.27 102.48
  Q 411.59 113.25 409.17 124.86
  C 407.55 132.68 407.12 140.58 406.31 148.70
  A 1.66 1.66 0.0 0 1 404.08 150.10
  Q 400.88 148.92 398.09 146.31
  C 393.72 142.21 396.02 138.20 396.30 133.28
  Q 396.44 130.76 397.07 128.29
  A 0.16 0.16 0.0 0 0 396.85 128.11
  C 392.58 130.29 387.99 131.74 383.90 128.49
  C 377.75 123.62 378.44 116.22 379.55 109.17
  A 0.63 0.63 0.0 0 0 378.65 108.51
  C 371.31 112.13 363.61 121.16 357.72 126.96
  Q 356.70 127.97 354.20 128.74
  A 1.31 1.29 47.1 0 1 353.29 128.70
  C 349.70 127.24 347.74 124.35 349.10 120.39
  Q 351.59 113.13 354.81 105.63
  Q 355.68 103.59 353.67 104.54
  Q 351.28 105.67 348.66 108.41
  Q 339.12 118.37 329.96 129.30
  A 1.79 1.78 28.2 0 1 328.09 129.86
  C 320.20 127.59 321.36 121.77 322.61 114.83
  Q 324.75 102.93 329.55 91.80
  C 330.42 89.78 330.37 88.21 330.16 86.14
  C 329.14 75.96 347.63 78.52 342.80 91.20
  Q 340.50 97.24 337.64 103.76
  A 0.65 0.64 81.5 0 0 338.65 104.51
  C 345.02 98.98 351.56 93.19 359.29 89.49
  A 1.29 1.29 0.0 0 1 360.22 89.41
  C 369.63 92.22 366.80 99.84 364.74 106.60
  A 0.35 0.35 0.0 0 0 365.32 106.96
  C 370.13 102.43 376.62 97.62 382.68 95.73
  Q 383.21 95.57 383.72 95.75
  Q 390.13 98.09 390.33 105.19
  Q 390.51 111.63 391.58 117.99
  C 392.15 121.38 395.72 120.26 397.39 123.13
  Z"
/>
<path d="
  M 466.14 50.89
  C 469.19 48.74 474.15 48.57 474.29 53.65
  Q 474.41 57.60 472.63 60.85
  C 465.86 73.25 458.69 85.40 455.25 97.87
  Q 451.51 111.40 447.45 124.83
  C 446.52 127.88 446.47 131.44 445.53 134.73
  C 443.63 141.43 436.87 136.12 436.99 131.24
  C 437.15 125.21 437.90 118.88 439.39 112.77
  C 442.31 100.76 446.21 87.02 452.37 75.97
  C 453.35 74.21 453.23 72.54 454.08 70.75
  C 457.20 64.23 460.10 55.14 466.14 50.89
  Z"
/>
<path d="
  M 580.00 85.95
  L 580.00 91.08
  Q 573.83 111.48 561.16 128.52
  C 555.97 135.50 549.78 138.86 542.52 131.99
  C 540.45 130.04 540.67 121.62 540.76 119.20
  Q 540.85 116.78 539.33 118.67
  C 535.21 123.81 533.35 130.08 526.47 132.69
  A 1.67 1.66 -49.1 0 1 525.51 132.76
  Q 520.01 131.48 515.21 128.50
  A 2.51 2.50 -75.3 0 1 514.02 126.46
  C 513.82 120.88 514.22 115.37 515.68 110.00
  C 516.04 108.67 515.89 107.24 516.28 106.02
  Q 520.22 93.82 523.75 81.49
  C 526.23 72.84 535.21 76.67 535.58 83.38
  Q 535.69 85.47 533.98 89.80
  C 530.38 98.93 526.97 107.17 525.44 116.99
  Q 525.21 118.45 526.25 118.92
  A 1.32 1.32 0.0 0 0 527.91 118.41
  L 547.39 86.70
  A 2.60 2.59 44.4 0 1 551.79 86.66
  L 555.50 92.47
  A 1.05 1.04 -55.4 0 1 555.64 93.25
  C 553.28 103.38 550.65 111.29 550.40 121.60
  A 1.00 1.00 0.0 0 0 552.25 122.14
  C 556.56 115.01 561.67 109.07 564.61 100.56
  Q 565.50 97.98 566.84 95.56
  C 569.47 90.80 572.44 81.24 580.00 85.95
  Z"
/>
<path d="
  M 492.34 90.56
  Q 496.95 90.69 501.46 89.06
  C 504.93 87.80 508.27 87.01 509.16 91.54
  A 1.28 1.25 -78.8 0 0 509.68 92.34
  C 513.31 94.83 506.21 99.25 504.22 100.21
  A 0.92 0.92 0.0 0 0 503.73 101.24
  L 504.57 104.95
  A 0.96 0.72 -55.5 0 1 504.58 105.18
  C 502.77 116.36 491.68 126.49 482.07 131.08
  C 478.77 132.66 475.20 133.36 471.76 131.49
  C 467.55 129.20 461.57 123.75 462.36 118.36
  C 464.14 106.08 470.98 90.10 482.12 83.40
  C 485.95 81.10 493.42 79.77 494.79 85.53
  C 495.34 87.82 494.49 88.99 492.24 89.45
  A 0.56 0.56 0.0 0 0 492.34 90.56
  Z
  M 487.50 100.23
  L 485.04 97.53
  A 0.72 0.71 46.4 0 0 484.02 97.50
  Q 476.32 105.05 474.82 116.00
  C 473.71 124.17 480.33 120.34 483.40 117.88
  Q 484.76 116.79 486.47 114.11
  Q 488.56 110.85 491.98 106.71
  C 494.34 103.87 493.35 97.62 488.43 100.38
  Q 487.90 100.68 487.50 100.23
  Z"
/>
<path d="
  M 300.88 120.36
  A 0.39 0.39 0.0 0 0 300.13 120.17
  C 297.83 125.48 290.36 129.89 285.50 131.23
  C 280.71 132.55 275.43 127.02 273.70 123.06
  Q 272.63 120.61 273.01 116.87
  C 274.25 104.46 279.12 93.81 285.22 83.11
  Q 285.48 82.66 285.99 82.58
  Q 289.66 81.98 292.80 83.99
  Q 293.23 84.26 293.40 84.74
  C 296.56 93.65 281.33 112.10 285.14 118.26
  C 286.56 120.54 290.14 119.33 291.75 117.99
  C 297.92 112.84 302.11 103.52 304.18 96.18
  C 305.74 90.67 303.95 87.59 310.04 84.34
  Q 310.43 84.12 310.89 84.15
  L 313.13 84.29
  Q 313.58 84.32 313.93 84.60
  C 326.20 94.61 301.37 115.23 312.30 125.53
  C 314.61 127.70 314.72 130.40 314.03 133.26
  A 1.00 0.99 87.2 0 1 313.42 133.94
  C 303.62 137.54 300.40 127.60 300.88 120.36
  Z"
/>
<path d="
  M 47.02 133.65
  C 47.75 126.18 66.12 131.57 63.16 140.07
  Q 62.98 140.58 62.51 140.85
  C 57.58 143.74 46.36 140.46 47.02 133.65
  Z"
/>
<ellipse cx="0.00" cy="0.00" transform="translate(147.24,142.39) rotate(-29.4)" rx="4.97" ry="4.15"/>
<path d="
  M 67.81 169.19
  C 71.66 172.23 72.65 177.82 67.20 179.29
  C 58.95 181.51 47.41 167.43 42.19 164.55
  C 36.08 161.18 21.23 155.82 22.65 146.95
  Q 23.16 143.72 25.97 142.67
  C 30.53 140.97 34.65 146.49 37.49 149.13
  Q 39.28 150.80 41.71 152.05
  Q 54.37 158.58 67.81 169.19
  Z"
/>
<path d="
  M 136.31 161.56
  C 141.07 159.99 144.95 165.25 141.68 169.26
  C 134.38 178.18 117.75 173.58 108.87 169.70
  Q 101.10 166.31 92.88 164.17
  C 83.71 161.78 86.59 152.64 94.51 153.25
  C 110.58 154.48 117.71 167.72 136.31 161.56
  Z"
/>
</svg>
