<?xml version="1.0" encoding="UTF-8" standalone="no"?>
<!DOCTYPE svg PUBLIC "-//W3C//DTD SVG 1.1//EN" "http://www.w3.org/Graphics/SVG/1.1/DTD/svg11.dtd">
<svg xmlns="http://www.w3.org/2000/svg" version="1.1" viewBox="0.00 0.00 1000.00 1000.00">
<path d="
  M 1000.00 519.06
  L 1000.00 526.81
  C 999.56 531.76 999.67 537.60 997.79 541.92
  C 989.27 561.46 962.57 558.59 945.99 555.06
  C 929.08 551.46 912.92 545.65 895.91 542.40
  C 872.90 538.00 848.01 539.47 825.67 546.11
  C 818.12 548.35 809.01 552.13 800.78 555.21
  C 761.94 569.77 712.47 570.32 693.77 524.78
  Q 688.65 512.32 686.48 499.01
  Q 683.19 478.85 676.99 459.46
  C 656.55 395.56 602.80 342.92 536.24 329.83
  C 440.70 311.03 345.87 373.59 333.93 472.23
  C 330.74 498.59 338.08 534.99 362.50 549.52
  C 371.41 554.82 383.96 557.78 394.66 561.49
  C 424.93 572.02 456.53 594.12 473.62 621.50
  C 484.77 639.36 486.97 662.05 504.53 674.43
  Q 513.32 680.63 524.74 681.84
  C 547.05 684.20 569.38 685.09 591.75 686.53
  Q 598.56 686.97 611.39 683.72
  Q 627.67 679.61 642.27 671.28
  C 654.28 664.43 667.22 655.55 678.32 650.38
  C 697.40 641.49 750.33 624.89 760.66 654.40
  C 766.84 672.06 757.63 683.96 740.89 688.80
  C 725.84 693.14 709.10 696.75 696.20 703.71
  C 670.72 717.46 643.94 734.21 614.74 737.24
  C 603.80 738.38 591.67 738.23 579.10 737.52
  Q 544.45 735.56 509.75 734.63
  C 504.59 734.50 499.12 733.65 493.79 733.24
  C 468.89 731.35 452.44 721.74 439.84 699.92
  C 430.91 684.42 423.65 667.28 415.41 652.33
  C 408.85 640.42 397.98 632.32 384.77 626.77
  C 364.02 618.03 340.50 613.82 319.57 611.66
  C 302.46 609.89 286.71 606.66 272.84 596.97
  Q 268.04 593.62 258.00 583.62
  C 244.09 569.76 230.57 556.37 215.21 544.06
  C 191.08 524.74 159.62 531.21 135.78 547.06
  C 118.27 558.70 105.66 578.57 98.58 598.25
  Q 96.72 603.44 97.06 608.25
  C 99.06 636.69 103.94 672.84 64.47 677.06
  C 34.96 680.21 22.94 655.98 18.96 631.01
  C 12.52 590.54 5.92 549.69 3.61 508.74
  Q 0.34 450.79 13.32 394.27
  C 38.74 283.64 98.44 186.83 186.35 115.65
  C 296.28 26.65 441.38 -9.71 580.53 14.56
  C 693.07 34.20 790.83 91.78 867.87 175.14
  C 944.70 258.28 989.62 363.36 998.69 476.31
  Q 999.44 485.65 1000.00 519.06
  Z
  M 423.6382 180.1788
  A 43.33 22.69 5.8 0 0 382.8230 153.2262
  A 43.33 22.69 5.8 0 0 337.4218 171.4212
  A 43.33 22.69 5.8 0 0 378.2370 198.3738
  A 43.33 22.69 5.8 0 0 423.6382 180.1788
  Z
  M 734.9874 271.0902
  A 41.56 22.03 24.1 0 0 706.0455 234.0103
  A 41.56 22.03 24.1 0 0 659.1126 237.1498
  A 41.56 22.03 24.1 0 0 688.0545 274.2297
  A 41.56 22.03 24.1 0 0 734.9874 271.0902
  Z
  M 193.9312 287.1516
  A 20.01 13.69 18.9 0 0 179.4344 267.7181
  A 20.01 13.69 18.9 0 0 156.0688 274.1884
  A 20.01 13.69 18.9 0 0 170.5656 293.6219
  A 20.01 13.69 18.9 0 0 193.9312 287.1516
  Z
  M 840.1140 319.6610
  A 20.42 12.59 20.2 0 0 825.2973 300.7944
  A 20.42 12.59 20.2 0 0 801.7860 305.5590
  A 20.42 12.59 20.2 0 0 816.6027 324.4256
  A 20.42 12.59 20.2 0 0 840.1140 319.6610
  Z
  M 211.5998 447.5303
  A 29.40 19.27 50.3 0 0 207.6463 412.6009
  A 29.40 19.27 50.3 0 0 174.0402 402.2897
  A 29.40 19.27 50.3 0 0 177.9937 437.2191
  A 29.40 19.27 50.3 0 0 211.5998 447.5303
  Z"
/>
<path d="
  M 351.01 761.97
  C 356.74 806.21 254.00 787.54 259.34 739.89
  Q 260.12 732.99 263.68 728.48
  C 275.92 712.96 301.68 722.88 316.51 728.33
  C 332.76 734.31 348.63 743.53 351.01 761.97
  Z"
/>
<ellipse cx="0.00" cy="0.00" transform="translate(813.54,788.72) rotate(-29.4)" rx="27.60" ry="23.10"/>
<path d="
  M 283.69 950.80
  C 256.91 926.59 227.34 906.10 194.91 890.17
  C 187.62 886.59 180.34 882.98 173.01 879.48
  C 152.33 869.63 126.56 849.93 124.19 825.09
  C 121.51 797.04 140.49 780.79 167.48 792.45
  C 191.77 802.94 202.25 830.33 228.21 841.65
  C 268.09 859.05 302.57 881.98 336.50 908.54
  C 351.35 920.16 368.11 929.15 381.70 942.30
  C 398.87 958.94 395.10 983.94 371.68 991.83
  C 340.86 1002.20 304.88 969.96 283.69 950.80
  Z"
/>
<path d="
  M 500.52 906.21
  C 490.86 903.32 483.76 893.36 481.80 883.22
  C 477.47 860.80 499.35 848.38 518.52 848.59
  C 541.75 848.84 564.47 857.00 587.16 867.61
  Q 611.66 879.06 636.39 889.97
  C 673.60 906.40 710.60 909.13 749.55 895.52
  C 759.45 892.05 771.75 892.69 780.09 898.85
  C 796.96 911.30 788.87 932.39 776.15 943.66
  C 756.42 961.15 724.34 965.85 698.50 964.71
  C 671.62 963.51 645.45 958.07 620.56 947.93
  Q 588.66 934.94 578.99 930.53
  Q 558.52 921.19 540.90 915.89
  C 529.11 912.34 512.52 909.79 500.52 906.21
  Z"
/>
</svg>
